<svg width="336" height="300" viewBox="0 0 336 300" fill="none" xmlns="http://www.w3.org/2000/svg">
    <path d="M273.878 148.892V230.789H181.823L182.445 148.892L182.824 148.098L199.687 112.646L207.746 95.6999L209.389 92.2541L228.165 52.7694L228.552 53.5842L253.998 107.087L273.878 148.892Z" fill="#DBDBDB"/>
    <path d="M276.019 227.274L273.878 227.668L257.043 230.789H215.645L185.6 167.274L182.824 148.098L199.687 112.646L207.746 95.6999L209.389 92.2541L228.165 52.7694L228.552 53.5842L216.44 143.616L227.005 119.53L226.583 166.431L240.947 148.263V174.462L235.878 165.589L231.231 205.301L256.58 145.308L273.878 218.249L276.019 227.274Z" fill="#B8B8B8"/>
    <path d="M207.746 95.6999L206.303 98.7313L222.779 79.3895L228.275 102.205L234.615 82.7731L241.375 91.6119L243.888 85.8322L228.552 53.5842L228.165 52.7694L209.389 92.2541L207.746 95.6999Z" fill="white" stroke="#263238" stroke-width="0.213637" stroke-linecap="round" stroke-linejoin="round"/>
    <path d="M273.878 148.892V230.789H181.823L182.445 148.892L182.824 148.098L199.687 112.646L207.746 95.6999L209.389 92.2541L228.165 52.7694L228.552 53.5842L253.998 107.087L273.878 148.892Z" stroke="#263238" stroke-width="0.213637" stroke-linecap="round" stroke-linejoin="round"/>
    <path d="M319.674 244.427L302.294 232.75L299.849 254.474L283.283 247.956L279.216 271.848L250.973 253.39H227.081L228.434 229.222L255.02 172.059L256.221 169.483L271.883 135.813L284.374 159.712L286.515 164.85L289.519 172.059L319.674 244.427Z" fill="#DBDBDB"/>
    <path d="M300.754 220.051L302.515 232.895L308.909 237.197L300.754 220.051Z" fill="#B8B8B8"/>
    <path d="M283.283 247.956L296.39 253.114L294.829 248.115L290.085 240.208L293.641 235.07L292.965 215.259L280.203 233.095L279.416 195.151L266.766 220.445L273.478 138.865L271.883 135.813L256.221 169.483L255.02 172.059L228.434 229.222L227.081 253.39H250.973L279.216 271.848L283.283 247.956Z" fill="#B8B8B8"/>
    <path d="M321.484 248.115L273.36 131.905L218.946 249.171" stroke="#263238" stroke-width="0.213637" stroke-linecap="round" stroke-linejoin="round"/>
    <path d="M278.146 175.36L281.702 172.121L290.437 181.823L291.162 174.897L273.36 131.905L252.624 176.603L252.596 176.976L271.033 157.572L278.146 175.36Z" fill="white" stroke="#263238" stroke-width="0.213637" stroke-linecap="round" stroke-linejoin="round"/>
    <path d="M240.636 273.347L242.252 292.426L229.187 285.983L212.075 277.545L195.682 269.466L186.947 276.261L163.02 266.234L141.675 286.929L124.854 272.38L104.808 276.578L106.099 257.174L140.557 180.09L145.031 170.07L175.629 101.625L185.656 124.585L195.033 136.876L236.272 236.797L244.054 226.901L269.417 286.28L240.636 273.347Z" fill="#DBDBDB"/>
    <path d="M180.525 220.514L172.501 210.377L177.569 159.671L154.333 205.73L174.614 119.109L175.898 102.232L175.629 101.625L145.031 170.07L140.557 180.09L106.099 257.174L104.808 276.578L124.854 272.38L141.675 286.929L163.02 266.234L170.222 269.252L172.08 239.952L186.443 250.518L184.751 210.377L180.525 220.514Z" fill="#B8B8B8"/>
    <path d="M272.691 294.077L244.054 226.901L236.272 236.797L177.79 95.5964L108.281 252.707" stroke="#263238" stroke-width="0.213637" stroke-linecap="round" stroke-linejoin="round"/>
    <path d="M198.499 145.605L177.79 95.5964L153.553 150.383L172.411 129.384L183.964 137.381L185.738 131.608L198.499 145.605Z" fill="white" stroke="#263238" stroke-width="0.213637" stroke-linecap="round" stroke-linejoin="round"/>
    <path d="M229.187 285.983L212.075 277.545L200.309 225.03L229.187 285.983Z" fill="#B8B8B8"/>
    <path d="M243.046 95.6999H207.746L209.389 92.2472H209.493C211.136 92.0815 211.302 90.9352 213.601 90.6037C215.901 90.2723 217.551 91.5912 219.361 90.7695C221.17 89.9477 222.323 86.8196 225.941 87.3168C229.56 87.814 234.656 93.069 234.656 93.069C236.631 93.069 237.452 92.5787 239.593 93.4004C240.896 93.9106 242.073 94.6948 243.046 95.6999Z" fill="#263238" stroke="#263238" stroke-width="0.213637" stroke-linecap="round" stroke-linejoin="round"/>
    <path d="M236.444 91.2874C236.444 91.2874 231.341 86.0186 227.723 85.5284C224.105 85.0381 222.951 88.1593 221.142 88.981C219.333 89.8028 217.689 88.4907 215.39 88.8153C213.091 89.1399 212.918 90.2999 211.247 90.4657C209.576 90.6314 208.45 89.4782 206.641 89.7751C204.832 90.0721 203.879 92.0815 202.857 92.0815C201.835 92.0815 200.226 90.9283 198.417 90.9283C196.607 90.9283 193.811 92.5718 193.811 92.5718L182.624 93.8907H244.834C243.863 92.8819 242.685 92.0952 241.382 91.5843C239.241 90.7902 238.419 91.2874 236.444 91.2874Z" fill="white" stroke="#263238" stroke-width="0.213637" stroke-linecap="round" stroke-linejoin="round"/>
    <path d="M299.953 77.96C299.953 77.96 294.857 72.6982 291.238 72.201C287.62 71.7038 286.467 74.8319 284.657 75.6537C282.848 76.4754 281.205 75.1565 278.898 75.4879C276.592 75.8194 276.433 76.9657 274.79 77.1314C273.146 77.2971 271.993 76.1439 270.184 76.4754C268.375 76.8068 267.387 78.7749 266.4 78.7749C265.412 78.7749 263.769 77.6217 261.96 77.6217C260.15 77.6217 257.354 79.2721 257.354 79.2721L246.167 80.5841H308.315C307.342 79.579 306.165 78.7947 304.862 78.2846C302.749 77.4698 301.928 77.96 299.953 77.96Z" fill="white" stroke="#263238" stroke-width="0.213637" stroke-linecap="round" stroke-linejoin="round"/>
    <path d="M268.526 190.835C268.526 190.835 259.391 181.409 252.9 180.518C246.409 179.627 244.358 185.234 241.112 186.733C237.867 188.231 234.897 185.849 230.796 186.436C226.694 187.023 226.376 189.095 223.428 189.385C220.479 189.675 218.414 187.617 215.176 188.211C211.937 188.805 210.163 192.354 208.395 192.354C206.627 192.354 203.678 190.282 200.44 190.282C197.201 190.282 192.153 193.231 192.153 193.231L172.128 195.593H283.559C281.813 193.777 279.692 192.364 277.345 191.449C273.533 189.951 272.062 190.835 268.526 190.835Z" fill="#263238" stroke="#263238" stroke-width="0.213637" stroke-linecap="round" stroke-linejoin="round"/>
    <path d="M272.007 189.095C272.007 189.095 262.871 179.662 256.38 178.778C249.889 177.894 247.838 183.494 244.593 184.993C241.347 186.491 238.378 184.109 234.276 184.696C230.174 185.283 229.857 187.354 226.908 187.644C223.959 187.935 221.895 185.877 218.656 186.471C215.418 187.064 213.643 190.614 211.875 190.614C210.107 190.614 207.159 188.542 203.92 188.542C200.682 188.542 195.634 191.491 195.634 191.491L175.608 193.852H287.04C285.293 192.037 283.172 190.624 280.825 189.709C277.013 188.211 275.542 189.095 272.007 189.095Z" fill="white" stroke="#263238" stroke-width="0.213637" stroke-linecap="round" stroke-linejoin="round"/>
    <path d="M289.519 172.059H254.992L256.194 169.484C256.975 169.837 257.795 170.094 258.638 170.25C259.626 170.25 260.613 168.275 262.422 167.951C264.232 167.626 265.385 168.772 267.028 168.607C268.672 168.441 268.837 167.288 271.171 166.963C273.505 166.639 275.114 167.951 276.924 167.122C278.733 166.293 279.886 163.179 283.504 163.669C284.573 163.869 285.595 164.27 286.515 164.85L289.519 172.059Z" fill="#263238" stroke="#263238" stroke-width="0.213637" stroke-linecap="round" stroke-linejoin="round"/>
    <path d="M293.773 167.26C293.773 167.26 288.676 161.991 285.058 161.501C281.44 161.011 280.286 164.132 278.477 164.954C276.668 165.775 275.025 164.463 272.718 164.788C270.412 165.112 270.253 166.272 268.609 166.431C266.966 166.59 265.813 165.451 264.004 165.775C262.194 166.1 261.207 168.082 260.219 168.082C259.232 168.082 257.589 166.928 255.779 166.928C253.97 166.928 251.173 168.572 251.173 168.572L239.987 169.891H302.135C301.163 168.882 299.986 168.096 298.682 167.585C296.569 166.763 295.747 167.26 293.773 167.26Z" fill="white" stroke="#263238" stroke-width="0.213637" stroke-linecap="round" stroke-linejoin="round"/>
    <path d="M199.446 180.09H140.557L145.031 170.07C146.311 170.245 147.614 170.061 148.795 169.539C152.669 167.785 155.127 161.1 162.868 162.157C170.609 163.213 181.512 174.462 181.512 174.462C185.732 174.462 187.492 173.413 192.064 175.153C194.85 176.249 197.368 177.933 199.446 180.09Z" fill="#263238" stroke="#263238" stroke-width="0.213637" stroke-linecap="round" stroke-linejoin="round"/>
    <path d="M184.005 172.322C184.005 172.322 173.102 161.066 165.361 160.009C157.62 158.953 155.162 165.637 151.288 167.398C147.414 169.159 143.906 166.342 138.982 167.046C134.059 167.75 133.707 170.209 130.185 170.561C126.663 170.913 124.205 168.455 120.338 169.18C116.471 169.905 114.358 174.103 112.252 174.103C110.146 174.103 106.624 171.638 102.75 171.638C98.8762 171.638 92.9031 175.16 92.9031 175.16L68.9968 177.956H201.945C199.866 175.801 197.346 174.122 194.557 173.033C189.985 171.265 188.231 172.322 184.005 172.322Z" fill="white" stroke="#263238" stroke-width="0.213637" stroke-linecap="round" stroke-linejoin="round"/>
    <path d="M152.565 51.1949C152.565 51.1949 141.661 39.9392 133.921 38.8827C126.18 37.8262 123.721 44.5106 119.848 46.2714C115.974 48.0323 112.466 45.2149 107.535 45.9193C102.605 46.6236 102.26 49.0819 98.7448 49.4341C95.23 49.7863 92.7648 47.3625 88.8978 48.053C85.0308 48.7435 82.9247 52.9696 80.8116 52.9696C78.6986 52.9696 75.1838 50.5044 71.3168 50.5044C67.4498 50.5044 61.4698 54.0261 61.4698 54.0261L37.5497 56.8366H170.505C168.424 54.6838 165.904 53.0045 163.116 51.9131C158.545 50.1384 156.784 51.1949 152.565 51.1949Z" fill="white" stroke="#263238" stroke-width="0.213637" stroke-linecap="round" stroke-linejoin="round"/>
    <path d="M298.516 273.858C298.516 273.858 282.834 257.672 271.703 256.152C260.572 254.633 257.036 264.245 251.47 266.78C245.905 269.314 240.843 265.261 233.765 266.269C226.687 267.277 226.169 270.826 221.115 271.33C216.06 271.834 212.517 268.292 206.952 269.307C201.386 270.322 198.348 276.392 195.316 276.392C192.285 276.392 187.223 272.849 181.657 272.849C176.092 272.849 167.488 277.904 167.488 277.904L133.106 281.951H324.315C321.326 278.854 317.703 276.439 313.694 274.873C307.121 272.338 304.586 273.858 298.516 273.858Z" fill="white" stroke="#263238" stroke-width="0.213637" stroke-linecap="round" stroke-linejoin="round"/>
    <path d="M228.165 52.7693V24.4436" stroke="#263238" stroke-width="0.213637" stroke-linecap="round" stroke-linejoin="round"/>
    <path d="M246.215 47.9701V42.7289C247.303 43.3185 248.227 44.1706 248.902 45.208C249.018 45.4277 249.11 45.6592 249.178 45.8985C248.513 45.8 247.835 45.9597 247.284 46.345C246.734 46.7302 246.351 47.3117 246.215 47.9701Z" fill="#263238" stroke="#263238" stroke-width="0.213637" stroke-linecap="round" stroke-linejoin="round"/>
    <path d="M234.891 27.5856C230.81 27.7375 228.676 26.1424 228.137 25.7212V33.5242L228.275 42.5702C229.491 44.483 238.026 44.483 242.908 44.483C247.79 44.483 249.178 45.864 249.178 45.864V28.8009C246.568 26.3703 239.593 27.4199 234.891 27.5856Z" fill="#3A7EB0" stroke="#263238" stroke-width="0.213637" stroke-miterlimit="10"/>
    <path d="M249.178 29.5536C248.47 29.0279 247.615 28.7381 246.733 28.7249C243.716 28.7249 241.264 32.1776 241.264 36.5003C241.264 40.8231 243.716 44.2689 246.733 44.2689C247.615 44.2557 248.47 43.9658 249.178 43.4402V29.5536Z" fill="white" stroke="#263238" stroke-width="0.213637" stroke-linecap="round" stroke-linejoin="round"/>
    <path d="M249.178 45.8778C249.178 45.8778 246.132 45.65 246.215 47.9494C246.257 49.0474 247.596 49.8622 252.485 49.517C257.374 49.1717 264.874 50.2696 264.874 50.2696L260.164 41.9211L267.132 39.1589C264.609 37.2799 261.786 35.8417 258.783 34.9052C255.664 33.9655 252.413 33.5364 249.157 33.6347L249.178 45.8778Z" fill="#3A7EB0" stroke="#263238" stroke-width="0.213637" stroke-miterlimit="10"/>
    <path d="M246.885 43.2262V42.3009C246.53 42.2768 246.186 42.1668 245.883 41.9804C245.58 41.7939 245.327 41.5366 245.145 41.2305C244.741 40.5334 244.525 39.7436 244.517 38.938L245.656 38.6686C245.68 39.0473 245.733 39.4236 245.815 39.7942C245.877 40.1201 246.009 40.4287 246.202 40.6988C246.291 40.8192 246.406 40.9181 246.539 40.9886C246.672 41.059 246.818 41.0992 246.968 41.1062C247.106 41.1286 247.248 41.1163 247.381 41.0705C247.513 41.0248 247.632 40.9469 247.728 40.8438C247.914 40.5755 248.004 40.2517 247.983 39.9254C248.001 39.5035 247.9 39.085 247.693 38.717C247.491 38.3755 247.26 38.052 247.003 37.7502L245.449 36.017C245.263 35.8038 245.098 35.5725 244.959 35.3265C244.819 35.0786 244.719 34.8108 244.662 34.5324C244.592 34.2173 244.56 33.8951 244.565 33.5725C244.519 32.9347 244.717 32.3032 245.117 31.8047C245.312 31.6029 245.55 31.4477 245.813 31.3509C246.076 31.254 246.358 31.2179 246.637 31.2454V30.3477H247.037V31.2454C247.333 31.2907 247.617 31.3939 247.873 31.5492C248.113 31.7014 248.318 31.904 248.473 32.1431C248.651 32.4114 248.782 32.7079 248.86 33.0201C248.963 33.4088 249.028 33.8066 249.053 34.2078L247.955 34.4633C247.936 34.1241 247.89 33.787 247.817 33.4551C247.762 33.172 247.639 32.9067 247.458 32.6817C247.366 32.58 247.253 32.5 247.126 32.4475C247 32.3949 246.863 32.3712 246.726 32.3779C246.453 32.3633 246.185 32.4577 245.981 32.6403C245.881 32.7555 245.806 32.8894 245.76 33.0341C245.714 33.1789 245.697 33.3314 245.711 33.4827C245.702 33.7638 245.751 34.0437 245.856 34.3045C245.976 34.556 246.132 34.7887 246.319 34.995L247.879 36.7282C248.115 36.9991 248.33 37.2876 248.522 37.5914C248.726 37.9157 248.891 38.2635 249.012 38.6272C249.14 39.0313 249.203 39.4532 249.198 39.8771C249.208 40.3129 249.125 40.7457 248.957 41.1477C248.822 41.4785 248.592 41.7617 248.295 41.961C247.999 42.1603 247.65 42.2666 247.293 42.2663V43.2055L246.885 43.2262Z" fill="#263238"/>
    <path d="M241.927 5.00517V13.8923" stroke="#263238" stroke-width="0.213637" stroke-linecap="round" stroke-linejoin="round"/>
    <path d="M241.927 57.465V66.3522" stroke="#263238" stroke-width="0.213637" stroke-linecap="round" stroke-linejoin="round"/>
    <path d="M208.926 17.2759L219.077 25.3138" stroke="#263238" stroke-width="0.213637" stroke-linecap="round" stroke-linejoin="round"/>
    <path d="M273.236 17.2759L263.078 25.3138" stroke="#263238" stroke-width="0.213637" stroke-linecap="round" stroke-linejoin="round"/>
    <path d="M273.236 63.2448L263.078 55.2069" stroke="#263238" stroke-width="0.213637" stroke-linecap="round" stroke-linejoin="round"/>
    <path d="M208.505 63.2448L218.656 55.2069" stroke="#263238" stroke-width="0.213637" stroke-linecap="round" stroke-linejoin="round"/>
    <path d="M214.851 40.1188H201.31" stroke="#263238" stroke-width="0.213637" stroke-linecap="round" stroke-linejoin="round"/>
    <path d="M284.229 40.1188H270.695" stroke="#263238" stroke-width="0.213637" stroke-linecap="round" stroke-linejoin="round"/>
    <path d="M100.533 299L105.526 287.42C105.526 287.42 107.521 282.227 108.723 280.632C109.762 279.097 110.696 277.493 111.52 275.833L117.914 266.248L124.308 246.664L106.568 252.582L92.9304 263.071L74.286 272.249L9.77631 285.369" fill="white"/>
    <path d="M100.533 299L105.526 287.42C105.526 287.42 107.521 282.227 108.723 280.632C109.762 279.097 110.696 277.493 111.52 275.833L117.914 266.248L124.308 246.664L106.568 252.582L92.9304 263.071L74.286 272.249L9.77631 285.369" stroke="#263238" stroke-width="0.213637" stroke-linecap="round" stroke-linejoin="round"/>
    <path d="M10.4324 236.279H89.1464L124.308 246.664L120.711 252.258L113.515 254.661L105.526 256.656L99.1315 265.847L93.9387 270.239L76.7582 273.036L8.42987 288.221" fill="white"/>
    <path d="M10.4324 236.279H89.1464L124.308 246.664L120.711 252.258L113.515 254.661L105.526 256.656L99.1315 265.847L93.9387 270.239L76.7582 273.036L8.42987 288.221" stroke="#263238" stroke-width="0.213637" stroke-linecap="round" stroke-linejoin="round"/>
    <path d="M105.526 256.656L106.327 271.441L101.928 279.831L98.731 285.023L90.0441 299" fill="white"/>
    <path d="M105.526 256.656L106.327 271.441L101.928 279.831L98.731 285.023L90.0441 299" stroke="#263238" stroke-width="0.213637" stroke-linecap="round" stroke-linejoin="round"/>
    <path d="M93.9386 270.239L92.7439 282.627L86.7501 286.225L78.7537 291.017" fill="white"/>
    <path d="M93.9386 270.239L92.7439 282.627L86.7501 286.225L78.7537 291.017" stroke="#263238" stroke-width="0.213637" stroke-linecap="round" stroke-linejoin="round"/>
    <path opacity="0.21" d="M83.8778 252.976C83.8778 255.386 70.9096 257.333 54.9099 257.333C38.9102 257.333 25.9075 255.386 25.9075 252.976C25.9075 250.566 38.8826 248.619 54.9099 248.619C70.9372 248.619 83.8778 250.573 83.8778 252.976Z" fill="black"/>
    <path d="M100.022 92.1574C100.022 92.1574 101.859 90.6521 102.943 89.9063C104.028 89.1605 105.954 87.0613 106.12 86.2257C106.286 85.3902 107.204 80.3769 107.204 80.3769C106.559 80.3398 105.913 80.3956 105.284 80.5426C104.034 80.7981 102.943 81.1296 102.943 81.1296L99.6012 85.1416L100.022 92.1574Z" fill="white" stroke="#263238" stroke-width="0.213637" stroke-miterlimit="10"/>
    <path d="M104.532 80.7153C104.532 80.7153 104.283 82.0963 104.78 82.5521C105.277 83.0078 108.122 83.0493 108.544 82.2137C108.965 81.3782 109.048 79.9626 108.544 79.9626C108.039 79.9626 104.532 80.7153 104.532 80.7153Z" fill="white" stroke="#263238" stroke-width="0.213637" stroke-miterlimit="10"/>
    <path d="M106.624 83.2219C106.624 83.2219 102.695 83.3876 102.529 83.9125C102.363 84.4373 102.108 85.4178 102.363 85.5835C102.619 85.7493 106.707 85.7562 107.121 85.2521C107.535 84.748 108.122 82.7178 106.624 83.2219Z" fill="white" stroke="#263238" stroke-width="0.213637" stroke-miterlimit="10"/>
    <path d="M106.368 85.473C106.368 85.473 102.446 85.6387 102.274 86.1635C102.101 86.6883 101.859 87.6689 102.108 87.8346C102.356 88.0004 106.451 88.0003 106.873 87.5032C107.294 87.006 107.874 84.9758 106.368 85.473Z" fill="white" stroke="#263238" stroke-width="0.213637" stroke-miterlimit="10"/>
    <path d="M105.222 87.6275C105.222 87.6275 102.253 87.7518 102.129 88.1316C102.004 88.5114 101.811 89.271 101.997 89.3953C102.184 89.5196 105.284 89.5196 105.595 89.1398C105.906 88.76 106.355 87.2477 105.222 87.6275Z" fill="white" stroke="#263238" stroke-width="0.213637" stroke-miterlimit="10"/>
    <path d="M122.658 77.5734L95.7273 81.6406H95.3958H95.1265C94.5874 81.5768 94.0896 81.3197 93.7255 80.9169C93.3615 80.5142 93.1557 79.9931 93.1464 79.4502C93.1372 78.9074 93.325 78.3796 93.6751 77.9647C94.0252 77.5497 94.5139 77.2758 95.0506 77.1936L120.883 73.3058L121.981 73.1401C122.275 73.0861 122.577 73.0914 122.869 73.1559C123.161 73.2204 123.437 73.3428 123.681 73.5157C123.924 73.6886 124.131 73.9086 124.288 74.1627C124.446 74.4168 124.551 74.6999 124.597 74.9951C124.643 75.2904 124.629 75.592 124.557 75.882C124.485 76.172 124.355 76.4445 124.176 76.6836C123.996 76.9226 123.771 77.1233 123.512 77.2737C123.254 77.4242 122.968 77.5214 122.672 77.5595L122.658 77.5734Z" fill="white" stroke="#263238" stroke-width="0.213637" stroke-miterlimit="10"/>
    <path d="M120.745 77.7874L95.1265 81.6544C94.5874 81.5905 94.0896 81.3334 93.7255 80.9307C93.3615 80.528 93.1557 80.0069 93.1464 79.464C93.1372 78.9212 93.325 78.3934 93.6751 77.9784C94.0252 77.5635 94.5139 77.2895 95.0506 77.2073L120.883 73.3196C121.403 73.4326 121.867 73.7244 122.194 74.1442C122.521 74.564 122.69 75.0852 122.672 75.6169C122.654 76.1486 122.449 76.6571 122.095 77.0537C121.74 77.4504 121.258 77.71 120.732 77.7874H120.745Z" fill="#B5B5B5" stroke="#263238" stroke-width="0.213637" stroke-miterlimit="10"/>
    <path d="M76.8757 83.8158C76.4684 83.8227 76.0738 83.6735 75.773 83.3988C75.4722 83.1241 75.2878 82.7447 75.2578 82.3385C75.2278 81.9322 75.3543 81.5298 75.6115 81.2139C75.8687 80.898 76.237 80.6924 76.6409 80.6393L95.1265 77.8289C95.3402 77.7834 95.5609 77.7822 95.7751 77.8252C95.9893 77.8683 96.1924 77.9547 96.3719 78.0791C96.5515 78.2035 96.7037 78.3633 96.8193 78.5487C96.9348 78.7341 97.0112 78.9412 97.0437 79.1572C97.0762 79.3733 97.0643 79.5937 97.0085 79.8049C96.9527 80.0161 96.8544 80.2137 96.7194 80.3855C96.5845 80.5573 96.4158 80.6997 96.2238 80.8039C96.0318 80.9081 95.8206 80.972 95.603 80.9915L77.0898 83.7536L76.8757 83.8158Z" fill="#B5B5B5" stroke="#263238" stroke-width="0.213637" stroke-miterlimit="10"/>
    <path d="M95.3406 93.3313C95.3406 93.3313 97.5158 85.9771 97.6815 84.6374C97.8472 83.2978 99.3526 82.1308 99.3526 82.1308C99.3526 82.1308 102.115 79.8797 102.805 78.6781C103.496 77.4766 104.062 78.9267 104.062 79.9349C104.062 80.9431 100.803 84.0298 100.803 84.0298C101.097 85.3947 101.291 86.7795 101.383 88.173C101.251 89.3489 100.882 90.486 100.299 91.5152L98.7104 96.1072L95.3406 93.3313Z" fill="white" stroke="#263238" stroke-width="0.213637" stroke-miterlimit="10"/>
    <path d="M94.5052 92.2402L100.775 96.8392L98.5172 100.679L92.7512 95.8379L94.5052 92.2402Z" fill="white" stroke="#263238" stroke-width="0.213637" stroke-miterlimit="10"/>
    <path d="M92.9168 95.0024L100.692 101.266C100.692 101.266 84.3956 125.331 83.3944 126C82.475 126.499 81.4891 126.864 80.4665 127.085L76.6271 115.221L92.9168 95.0024Z" fill="#3A7EB0" stroke="#263238" stroke-width="0.213637" stroke-miterlimit="10"/>
    <path d="M70.5298 97.9234L74.3692 100.347H72.3666L71.3653 101.266L69.5216 101.1L68.8587 98.9246L70.5298 97.9234Z" fill="white" stroke="#263238" stroke-width="0.213637" stroke-linecap="round" stroke-linejoin="round"/>
    <path d="M75.3705 72.857C75.3705 72.857 77.7114 78.7058 77.3799 79.2927C77.0485 79.8797 76.5444 80.7981 76.6894 81.3643C76.8344 81.9306 79.196 84.817 78.9474 85.2935C78.3746 86.1323 77.7592 86.9413 77.1037 87.7173C77.1037 87.7173 76.2682 91.4738 76.4132 91.8121C76.5582 92.1505 77.3316 93.062 76.8275 93.9804C76.3234 94.8988 75.039 95.0922 74.2035 95.0922C73.5607 95.077 72.9196 95.0216 72.2838 94.9264L69.86 99.5185L56.2427 94.3395L58.3143 89.7405C57.3885 87.3138 57.2412 84.6589 57.8931 82.1447C58.9841 77.8841 67.1738 72.9536 70.5989 72.4772C74.0239 72.0007 75.3705 72.857 75.3705 72.857Z" fill="white" stroke="#263238" stroke-width="0.213637" stroke-linecap="round" stroke-linejoin="round"/>
    <path d="M72.2008 73.9412C72.2008 73.9412 74.369 76.7862 73.9547 77.6217C73.213 78.6467 72.3736 79.5972 71.4481 80.4598C71.4481 80.4598 72.1386 83.3877 71.7795 83.7191C71.5622 83.9021 71.3072 84.0347 71.0326 84.1076C70.758 84.1804 70.4707 84.1916 70.1913 84.1404C69.8599 83.9677 67.7675 79.9972 66.4348 80.881C65.1021 81.7649 64.8466 83.9677 65.4266 85.2245C65.7299 85.8969 66.0951 86.5396 66.5177 87.1442C66.5177 87.1442 63.1755 90.2378 61.3387 90.5969C59.5018 90.9559 58.0793 91.101 57.5753 90.3483C57.0712 89.5956 53.9845 82.8284 53.9016 78.0637C53.8188 73.299 56.9883 69.2939 58.9149 68.3962C60.8415 67.4985 64.5082 67.3949 64.5082 67.3949C64.5082 67.3949 64.7637 65.2197 67.3532 65.3233C69.9427 65.4269 72.6151 67.4985 72.6151 67.4985C72.6151 67.4985 71.7795 64.4878 73.7821 66.2417C75.7846 67.9957 77.2348 69.0039 76.7928 71.766C76.3509 74.5281 72.2008 73.9412 72.2008 73.9412Z" fill="#263238" stroke="#263238" stroke-width="0.213637" stroke-linecap="round" stroke-linejoin="round"/>
    <path d="M66.5177 87.1442L68.3545 87.6482L69.1072 89.1536" stroke="#263238" stroke-width="0.213637" stroke-linecap="round" stroke-linejoin="round"/>
    <path d="M74.2034 95.0922C73.6235 94.7982 73.0651 94.4636 72.5323 94.0909C71.8418 93.5868 70.3571 92.5027 70.3571 92.5027L71.1927 96.5078L72.2837 94.9265L74.2034 95.0922Z" fill="#263238" stroke="#263238" stroke-width="0.213637" stroke-linecap="round" stroke-linejoin="round"/>
    <path d="M52.9833 93.0758L52.2306 96.5837L68.7689 101.183L76.7929 108.116L70.3571 100.43L69.3558 98.0062L52.9833 93.0758Z" fill="white" stroke="#263238" stroke-width="0.213637" stroke-linecap="round" stroke-linejoin="round"/>
    <path d="M71.3653 101.266C71.3653 101.266 75.9988 102.868 79.5343 112.445C83.0698 122.023 92.9928 160.161 92.9928 160.161L87.5169 161.542C85.845 152.328 83.5987 143.228 80.7911 134.294C76.4822 120.994 71.3653 101.266 71.3653 101.266Z" fill="#3A7EB0" stroke="#263238" stroke-width="0.213637" stroke-linecap="round" stroke-linejoin="round"/>
    <path d="M88.311 158.159C88.311 158.159 86.4396 178.419 85.6524 188.128C84.8652 197.837 77.1243 224.084 76.2059 227.626C75.2875 231.169 74.8939 242.059 74.8939 242.059L76.2059 242.977V244.027L80.6668 246.913C80.6668 246.913 87.2268 249.282 85.7836 250.725C84.3404 252.168 81.7164 251.643 78.0427 251.643C74.3691 251.643 70.4469 250.331 69.2522 250.331C68.2881 250.37 67.3224 250.326 66.3658 250.2C65.841 250.069 64.6602 250.594 64.6602 249.413C64.4506 247.515 64.1441 245.63 63.7418 243.764C63.7418 243.764 62.6714 242.176 62.6714 241.14C62.6714 240.104 62.9338 236.548 63.4587 235.236C63.9835 233.924 64.7707 228.676 64.7707 228.676L65.5579 214.9L60.9658 224.871L57.0298 241.403C57.0298 241.403 58.9978 242.059 58.9978 242.583C58.9978 243.108 58.6042 245.47 58.6042 245.47C58.6042 245.47 61.097 247.963 62.2778 248.922C64.6072 250.409 67.0162 251.767 69.4939 252.99C69.8875 253.121 71.5655 254.564 70.5435 255.22C69.5215 255.876 64.2459 256.27 60.0474 256.27C55.849 256.27 50.4628 254.433 50.4628 254.433L49.282 255.22L44.9523 254.171C44.4275 254.039 44.1651 251.678 44.2618 250.759C44.3283 249.927 44.3283 249.091 44.2618 248.26C44.2618 247.735 43.8682 244.98 44.1306 244.061C44.393 243.143 45.3114 240.65 45.3114 240.65C45.3114 240.65 47.2794 219.395 47.8042 216.115C48.3291 212.835 51.9267 205.578 51.9267 205.578C51.9267 205.578 53.7705 192.713 53.9983 190.22C54.2262 187.727 54.3919 178.281 54.3919 178.281C53.1311 175.084 52.1199 171.794 51.3674 168.441C50.5802 164.242 51.2362 163.324 51.2362 163.324L53.004 156.764L88.311 158.159Z" fill="#263238" stroke="#263238" stroke-width="0.213637" stroke-linecap="round" stroke-linejoin="round"/>
    <path d="M68.1335 211.454C68.1335 211.454 72.1317 198.134 72.7946 194.135C73.4576 190.137 77.9046 175.035 77.9046 175.035L82.1238 172.149" stroke="#8C8C8C" stroke-width="0.213637" stroke-linecap="round" stroke-linejoin="round"/>
    <path d="M52.8107 209.458C52.8107 209.458 62.3608 203.686 67.9126 193.694" stroke="#8C8C8C" stroke-width="0.213637" stroke-linecap="round" stroke-linejoin="round"/>
    <path d="M69.2384 187.693C69.2384 187.693 63.4655 196.58 59.4673 200.122" stroke="#8C8C8C" stroke-width="0.213637" stroke-linecap="round" stroke-linejoin="round"/>
    <path d="M79.3823 114.551C79.3823 114.551 86.1496 146.758 87.0611 151.088C87.9726 155.417 88.3109 158.159 88.3109 158.159C86.9198 158.434 85.5131 158.623 84.0987 158.725C82.8419 158.725 80.1074 158.614 80.1074 158.614L75.9642 112.784L79.3823 114.551Z" fill="white" stroke="#263238" stroke-width="0.213637" stroke-linecap="round" stroke-linejoin="round"/>
    <path d="M50.2419 95.3339V98.8418C50.2419 98.8418 46.4025 114.22 46.8997 119.061C47.3969 123.901 52.1685 139.452 52.1685 139.452C52.1685 139.452 50.9946 141.372 50.9117 141.62C50.9877 142.356 51.1286 143.084 51.3329 143.796L47.0516 164.836C47.0516 164.836 63.3413 168.289 74.0377 167.343C84.7341 166.397 85.4591 165.851 85.4591 165.851C85.4591 165.851 84.0781 145.971 84.1471 141.289C84.2162 136.607 80.3008 116.809 79.3824 114.551C78.464 112.293 76.7929 108.116 76.7929 108.116L68.7689 101.21L50.2419 95.3339Z" fill="#3A7EB0" stroke="#263238" stroke-width="0.213637" stroke-linecap="round" stroke-linejoin="round"/>
    <path d="M62.5887 120.4C62.5887 120.4 53.736 128.424 52.4792 128.928" stroke="#263238" stroke-width="0.213637" stroke-linecap="round" stroke-linejoin="round"/>
    <path d="M65.1781 120.152C65.1781 120.152 62.6714 124.247 61.5873 126.083" stroke="#263238" stroke-width="0.213637" stroke-linecap="round" stroke-linejoin="round"/>
    <path d="M64.094 126.498L61.4216 131.594" stroke="#263238" stroke-width="0.213637" stroke-linecap="round" stroke-linejoin="round"/>
    <path d="M80.3008 89.5679C80.3008 89.5679 80.5563 83.6362 80.8049 82.6626C81.523 80.8686 82.332 79.1124 83.2286 77.4007C83.2286 77.4007 84.5614 76.3097 85.1483 76.7102C85.7353 77.1107 85.6524 78.0912 85.6524 78.0912C85.6524 78.0912 86.6537 76.7102 87.2407 76.8414C87.8276 76.9726 88.4077 78.181 88.4077 78.181C89.0032 78.0005 89.6341 77.9697 90.2445 78.0912C90.935 78.3467 91.4184 78.181 91.2458 78.9268C91.0731 79.6726 89.4089 83.7605 89.4089 83.7605C89.4089 83.7605 92.9168 82.4278 92.9168 83.07C92.9168 83.7122 92.3368 83.9953 91.5841 84.4925C90.8314 84.9897 88.0762 86.4122 88.0762 86.4122L86.0046 88.4838L85.6731 90.4035L80.3008 89.5679Z" fill="white" stroke="#263238" stroke-width="0.213637" stroke-linecap="round" stroke-linejoin="round"/>
    <path d="M80.6252 92.6615L80.2869 89.5679C81.0706 89.3227 81.8899 89.2106 82.7106 89.2365C83.9878 89.4409 85.2463 89.7481 86.474 90.1549L86.6398 93.3314L80.6252 92.6615Z" fill="white" stroke="#263238" stroke-width="0.213637" stroke-linecap="round" stroke-linejoin="round"/>
    <path d="M52.2305 105.36C52.2305 105.36 55.5727 104.442 56.574 104.359C57.5753 104.276 79.1337 106.279 79.1337 106.279L80.2179 91.5774C81.0226 91.4331 81.8487 91.4613 82.6417 91.6603L88.7391 93.4142C88.7391 93.4142 89.0774 108.606 89.0774 112.059V117.659C88.4235 117.903 87.7517 118.097 87.068 118.239C86.1496 118.412 63.3412 120.311 59.1635 120.311C54.9858 120.311 50.5594 120.642 49.5513 116.388" fill="#3A7EB0"/>
    <path d="M52.2305 105.36C52.2305 105.36 55.5727 104.442 56.574 104.359C57.5753 104.276 79.1337 106.279 79.1337 106.279L80.2179 91.5774C81.0226 91.4331 81.8487 91.4613 82.6417 91.6603L88.7391 93.4142C88.7391 93.4142 89.0774 108.606 89.0774 112.059V117.659C88.4235 117.903 87.7517 118.097 87.068 118.239C86.1496 118.412 63.3412 120.311 59.1635 120.311C54.9858 120.311 50.5594 120.642 49.5513 116.388" stroke="#263238" stroke-width="0.213637" stroke-linecap="round" stroke-linejoin="round"/>
</svg>
