<svg width="107" height="107" viewBox="0 0 107 107" fill="none" xmlns="http://www.w3.org/2000/svg">
    <rect x="19.328" y="19.3103" width="68.448" height="68.4138" rx="34.2069" fill="white"/>
    <path d="M45.552 53.2429C45.552 52.8632 45.8342 52.5494 46.2002 52.4998L46.302 52.4929L59.486 52.4935L54.723 47.75C54.4295 47.4577 54.4285 46.9829 54.7207 46.6893C54.9864 46.4225 55.403 46.3974 55.6971 46.6146L55.7814 46.687L61.8314 52.711C61.8701 52.7496 61.9037 52.7913 61.9322 52.8353C61.9403 52.8485 61.9485 52.8621 61.9562 52.8759C61.9634 52.8878 61.9699 52.9001 61.9759 52.9125C61.9844 52.9307 61.9927 52.9494 62.0002 52.9685C62.0063 52.9832 62.0114 52.9975 62.016 53.0119C62.0216 53.0298 62.0269 53.0489 62.0316 53.0682C62.035 53.0818 62.0377 53.0948 62.0401 53.1078C62.0434 53.1273 62.0463 53.1474 62.0483 53.1677C62.05 53.1832 62.0511 53.1986 62.0517 53.214C62.0518 53.2233 62.052 53.2331 62.052 53.2429L62.0516 53.272C62.0511 53.2867 62.05 53.3014 62.0486 53.3161L62.052 53.2429C62.052 53.2902 62.0476 53.3366 62.0392 53.3814C62.0373 53.3922 62.035 53.4032 62.0324 53.4141C62.0271 53.4367 62.0209 53.4585 62.0138 53.4798C62.0104 53.4904 62.0063 53.5017 62.002 53.5129C61.9932 53.5355 61.9837 53.557 61.9732 53.5779C61.9683 53.5878 61.9629 53.5981 61.9572 53.6083C61.9478 53.625 61.9381 53.6408 61.9279 53.6562C61.9207 53.6672 61.9127 53.6785 61.9044 53.6897L61.8979 53.6984C61.8777 53.7248 61.8558 53.7498 61.8323 53.7732L61.8314 53.7739L55.7814 59.7989C55.4879 60.0912 55.0131 60.0902 54.7208 59.7967C54.4551 59.5299 54.4317 59.1132 54.6502 58.8201L54.723 58.7361L59.484 53.9935L46.302 53.9929C45.8878 53.9929 45.552 53.6571 45.552 53.2429Z" fill="#1E1E1E"/>
    <ellipse opacity="0.08" cx="53.552" cy="53.5172" rx="51.888" ry="51.8621" stroke="white" stroke-width="2"/>
    <path d="M1.664 53.5172C1.664 82.1599 24.895 105.379 53.552 105.379C82.209 105.379 105.44 82.1599 105.44 53.5172C105.44 24.8746 82.209 1.65515 53.552 1.65515" stroke="white" stroke-width="2" stroke-linecap="round"/>
</svg>
