<svg width="94" height="94" viewBox="0 0 94 94" fill="none" xmlns="http://www.w3.org/2000/svg">
    <path d="M94 47C94 55.1511 91.925 62.8176 88.2745 69.5C80.2998 84.098 64.8063 94 47 94C38.0232 94 29.6342 91.4834 22.5 87.1171C9.00498 78.8579 0 63.9806 0 47C0 21.0426 21.0426 0 47 0C72.9574 0 94 21.0426 94 47Z" fill="white"/>
    <path d="M24.2755 54H26.2915V49.552H28.7555L31.2675 54H33.5715L30.8195 49.2C32.1795 48.656 33.0275 47.472 33.0275 45.824C33.0275 43.456 31.3155 42.08 28.8675 42.08H24.2755V54ZM26.2915 47.792V43.856H28.8675C30.1315 43.856 30.9795 44.64 30.9795 45.824C30.9795 47.008 30.1315 47.792 28.8675 47.792H26.2915ZM42.4738 49.376C42.4738 47.088 40.7458 45.184 38.3138 45.184C35.8818 45.184 34.0418 47.088 34.0418 49.68C34.0418 52.208 35.8498 54.192 38.4578 54.192C40.2178 54.192 41.6258 53.296 42.1538 52.064L40.5698 51.296C40.1858 52 39.4978 52.496 38.4738 52.496C37.1458 52.496 36.1378 51.616 36.0418 50.24H42.3778C42.4418 49.984 42.4738 49.68 42.4738 49.376ZM36.0738 48.752C36.2978 47.488 37.1938 46.784 38.3138 46.784C39.4178 46.784 40.3458 47.6 40.4098 48.752H36.0738ZM47.1816 45.184C45.4696 45.184 44.0296 46.096 43.5336 47.408L45.1976 48.24C45.5176 47.424 46.2536 46.912 47.1816 46.912C48.1416 46.912 48.7976 47.44 48.7976 48.24V48.512L45.9656 49.12C44.2216 49.504 43.2136 50.352 43.2136 51.632C43.2136 53.104 44.4296 54.192 46.3496 54.192C47.3896 54.192 48.2696 53.808 48.9096 53.04V54H50.7176V48.24C50.7176 46.448 49.2776 45.184 47.1816 45.184ZM46.5736 52.672C45.7416 52.672 45.2136 52.272 45.2136 51.616C45.2136 51.088 45.6296 50.672 46.3496 50.512L48.7976 49.968V50.528C48.7976 51.744 47.8536 52.672 46.5736 52.672ZM58.8801 42.08V46.336C58.2721 45.6 57.2801 45.184 56.1281 45.184C53.6961 45.184 51.7761 47.136 51.7761 49.696C51.7761 52.24 53.6641 54.192 56.1441 54.192C57.2961 54.192 58.3361 53.76 58.9761 52.992V54H60.8001V42.08H58.8801ZM56.3361 52.416C54.8481 52.416 53.7761 51.28 53.7761 49.696C53.7761 48.112 54.8481 46.96 56.3361 46.96C57.8081 46.96 58.8801 48.112 58.8801 49.696C58.8801 51.296 57.8081 52.416 56.3361 52.416ZM68.5828 45.376L66.2628 51.472L63.9428 45.376H61.8468L65.2388 53.968L64.9508 54.64C64.7268 55.168 64.4388 55.808 63.3348 55.808C62.9988 55.808 62.5828 55.744 62.3428 55.68V57.296C62.6948 57.456 63.1428 57.52 63.6068 57.52C65.7828 57.52 66.4548 55.952 66.8388 55.008L70.6788 45.376H68.5828Z" fill="#1E1E1E"/>
</svg>
